<?xml version="1.0" encoding="utf-8"?>
<!-- Generator: Adobe Illustrator 28.1.0, SVG Export Plug-In . SVG Version: 6.00 Build 0)  -->
<svg version="1.1" id="Слой_1" xmlns:svg="http://www.w3.org/2000/svg"
	 xmlns="http://www.w3.org/2000/svg" xmlns:xlink="http://www.w3.org/1999/xlink" x="0px" y="0px" viewBox="0 0 643 100.5"
	 style="enable-background:new 0 0 643 100.5;" xml:space="preserve" fill="#71a5cf"> 
<path d="M60.2,80.2v17.7H2.1V41.5h21v38.7C23.1,80.2,60.2,80.2,60.2,80.2z"/>
<path d="M61.8,69.7c0-19.6,10.7-29,35.5-29s35.5,9.4,35.5,29s-10.7,29.1-35.5,29.1S61.8,89.4,61.8,69.7z M111.9,69.7
	c0-5.9-2.1-11.2-14.6-11.2c-12.4,0-14.6,5.3-14.6,11.2c0,6,2.1,11.4,14.6,11.4C109.7,81.1,111.9,75.7,111.9,69.7z"/>
<path d="M169.9,40.7c22.6,0,34.4,7.9,35.3,25.8h-21.5c-0.8-5.3-4.9-8-13.8-8c-12.4,0-14.6,5.2-14.6,11.2s2.1,11.4,14.6,11.4
	c8.9,0,13-2.8,13.8-8.2h21.5c-0.9,17.9-12.6,25.9-35.3,25.9c-24.9,0-35.5-9.4-35.5-29.2C134.4,50,145.1,40.7,169.9,40.7L169.9,40.7z
	"/>
<path d="M252,68.1l32.5,29.8h-29.1L237.2,80l-8.7,7.2V98h-21V41.5h21v22.1l26-22.1h29.9L252,68.1L252,68.1L252,68.1z"/>
<path d="M355.6,59.3h-24.3V98h-21V59.3h-24.1V41.5h69.4V59.3L355.6,59.3z"/>
<path d="M356.5,69.7c0-19.6,10.7-29,35.5-29c24.8,0,35.5,9.4,35.5,29S416.6,98.8,392,98.8C367.2,98.8,356.5,89.4,356.5,69.7z
	 M406.5,69.7c0-5.9-2.1-11.2-14.5-11.2c-12.4,0-14.6,5.3-14.6,11.2c0,6,2.1,11.4,14.6,11.4C404.4,81.1,406.5,75.7,406.5,69.7z"/>
<path d="M565,69.7c0-19.6,10.7-29,35.5-29c24.9,0,35.5,9.4,35.5,29s-10.8,29.1-35.5,29.1S565,89.4,565,69.7L565,69.7z M615.2,69.7
	c0-5.9-2.1-11.2-14.5-11.2c-12.4,0-14.6,5.3-14.6,11.2c0,6,2.1,11.4,14.6,11.4S615.2,75.7,615.2,69.7z"/>
<path d="M502.8,41.5V98h-27.4L451,64.7V98h-21V41.5h27.5l24.3,33.4V41.5H502.8L502.8,41.5z"/>
<path d="M97.2,3.8c-20.1,0-26.2,8.1-26.2,29.9v30.4h8V33.7c0-14.9,3.4-20.5,18.3-20.5s18.4,5.6,18.4,20.5h8
	C123.6,11.9,117.4,3.8,97.2,3.8z"/>
<rect x="541.2" y="41.5" width="21.2" height="56.5"/>
<circle cx="523.7" cy="89.4" r="8.6"/>
</svg>
