<svg width="302" height="40" viewBox="0 0 302 40" fill="none" xmlns="http://www.w3.org/2000/svg">
<path d="M17.3 27.8V33H0V16.2H6.3V27.7H17.3V27.8Z" fill="#00D1FF"/>
<path d="M27.6 16C34.3 16 37.8 18.4 38.1 23.7H31.7C31.5 22.1 30.2 21.3 27.6 21.3C23.9 21.3 23.3 22.9 23.3 24.6C23.3 26.3 23.9 28 27.6 28C30.2 28 31.5 27.2 31.7 25.6H38.1C37.8 30.9 34.3 33.3 27.6 33.3C20.2 33.3 17 30.5 17 24.6C17 18.7 20.2 16 27.6 16Z" fill="#00D1FF"/>
<path d="M53.3 23.9L63 32.8H54.3L48.9 27.5L46.3 29.6V32.8H40V16H46.3V22.6L54.1 16H63L53.3 23.9Z" fill="#00D1FF"/>
<path d="M82.7 21.3H75.5V32.8H69.2V21.3H62V16H82.7V21.3Z" fill="#00D1FF"/>
<path d="M105.7 16V32.8H97.6L90.3 22.9V32.8H84V16H92.2L99.4 25.9V16H105.7Z" fill="#00D1FF"/>
<path d="M111.6 33.2C113.036 33.2 114.2 32.0359 114.2 30.6C114.2 29.1641 113.036 28 111.6 28C110.164 28 109 29.1641 109 30.6C109 32.0359 110.164 33.2 111.6 33.2Z" fill="#00D1FF"/>
<path d="M127.6 16C134.3 16 137.8 18.4 138.1 23.7H131.7C131.5 22.1 130.2 21.3 127.6 21.3C123.9 21.3 123.3 22.9 123.3 24.6C123.3 26.3 123.9 28 127.6 28C130.2 28 131.5 27.2 131.7 25.6H138.1C137.8 30.9 134.3 33.3 127.6 33.3C120.2 33.3 117 30.5 117 24.6C117 18.7 120.2 16 127.6 16Z" fill="#00D1FF"/>
<path d="M139 24.6C139 18.8 142.2 16 149.6 16C157 16 160.2 18.8 160.2 24.6C160.2 30.4 157 33.3 149.6 33.3C142.2 33.3 139 30.5 139 24.6ZM153.9 24.6C153.9 22.8 153.3 21.3 149.6 21.3C145.9 21.3 145.3 22.9 145.3 24.6C145.3 26.4 145.9 28 149.6 28C153.2 28 153.9 26.4 153.9 24.6Z" fill="#00D1FF"/>
<path d="M172 16H166.5L172 33H177.5L172 16Z" fill="#00D1FF"/>
<path d="M177.5 16H183L177.5 33H172L177.5 16Z" fill="#00D1FF"/>
<path d="M168.3 16L162 16V32.8L168.3 32.8V16Z" fill="#00D1FF"/>
<path d="M187.3 16H181V32.8H187.3V16Z" fill="#00D1FF"/>
</svg>
