<svg width="224" height="40" viewBox="0 0 224 40" fill="none" xmlns="http://www.w3.org/2000/svg">
<path d="M17.3 27.75V33.03H0V16.22H6.26V27.75H17.3Z" fill="#00D1FF"/>
<path d="M17.78 24.61C17.78 18.77 20.95 15.98 28.35 15.98C35.75 15.98 38.92 18.79 38.92 24.61C38.92 30.43 35.73 33.28 28.35 33.28C20.97 33.28 17.78 30.47 17.78 24.61ZM32.68 24.61C32.68 22.85 32.05 21.27 28.35 21.27C24.65 21.27 24.02 22.84 24.02 24.61C24.02 26.39 24.65 28 28.35 28C32.05 28 32.68 26.39 32.68 24.61Z" fill="#00D1FF"/>
<path d="M49.98 15.98C56.71 15.98 60.21 18.34 60.48 23.65H54.09C53.85 22.07 52.62 21.27 49.98 21.27C46.28 21.27 45.65 22.83 45.65 24.61C45.65 26.39 46.28 28 49.98 28C52.62 28 53.85 27.18 54.09 25.57H60.48C60.21 30.9 56.72 33.28 49.98 33.28C42.58 33.28 39.41 30.47 39.41 24.6C39.4 18.74 42.58 15.98 49.98 15.98Z" fill="#00D1FF"/>
<path d="M74.39 24.15L84.07 33.03H75.42L70.04 27.7L67.45 29.83V33.03H61.19V16.22H67.45V22.81L75.2 16.22H84.09L74.41 24.15H74.39Z" fill="#00D1FF"/>
<path d="M105.24 21.51H98.01V33.04H91.75V21.51H84.58V16.23H105.24V21.51Z" fill="#00D1FF"/>
<path d="M105.46 24.61C105.46 18.77 108.63 15.98 116.03 15.98C123.43 15.98 126.6 18.79 126.6 24.61C126.6 30.43 123.4 33.28 116.03 33.28C108.66 33.28 105.46 30.47 105.46 24.61ZM120.36 24.61C120.36 22.85 119.73 21.27 116.04 21.27C112.34 21.27 111.71 22.84 111.71 24.61C111.71 26.39 112.34 28 116.04 28C119.74 28 120.36 26.39 120.36 24.61Z" fill="#00D1FF"/>
<path d="M159.46 24.61C159.46 18.77 162.63 15.98 170.03 15.98C177.43 15.98 180.6 18.79 180.6 24.61C180.6 30.43 177.4 33.28 170.03 33.28C162.66 33.28 159.46 30.47 159.46 24.61ZM174.36 24.61C174.36 22.85 173.73 21.27 170.04 21.27C166.34 21.27 165.71 22.84 165.71 24.61C165.71 26.39 166.34 28 170.04 28C173.74 28 174.36 26.39 174.36 24.61Z" fill="#00D1FF"/>
<path d="M149 16.22V33.03H140.86L133.6 23.11V33.03H127.34V16.22H135.51L142.75 26.15V16.22H149Z" fill="#00D1FF"/>
<path d="M202.95 16.22V33.03H194.81L187.55 23.11V33.03H181.29V16.22H189.46L196.7 26.15V16.22H202.95Z" fill="#00D1FF"/>
<path d="M28.34 5C22.35 5 20.53 7.42 20.53 13.91V22.96H22.91V13.91C22.91 9.47 23.93 7.81 28.36 7.81C32.79 7.81 33.83 9.49 33.83 13.91H36.2C36.17 7.42 34.34 5 28.34 5Z" fill="#00D1FF"/>
<path d="M210.3 16.22H204V33.03H210.3V16.22Z" fill="#00D1FF"/>
<path d="M155.22 33.04C156.634 33.04 157.78 31.8938 157.78 30.48C157.78 29.0661 156.634 27.92 155.22 27.92C153.806 27.92 152.66 29.0661 152.66 30.48C152.66 31.8938 153.806 33.04 155.22 33.04Z" fill="#00D1FF"/>
<path d="M221 28.22H206.56V33.04H221V28.22Z" fill="#00D1FF"/>
<path d="M221 16.22H206.56V21.04H221V16.22Z" fill="#00D1FF"/>
<path d="M219.22 22.22H206.56V27.04H219.22V22.22Z" fill="#00D1FF"/>
</svg>
