<svg width="302" height="40" viewBox="0 0 302 40" fill="none" xmlns="http://www.w3.org/2000/svg">
<path d="M17.3 27.8V33H0V16.2H6.3V27.7H17.3V27.8Z" fill="#00D1FF"/>
<path d="M17.8 24.6C17.8 18.8 21 16 28.4 16C35.8 16 39 18.8 39 24.6C39 30.4 35.8 33.3 28.4 33.3C21 33.3 17.8 30.5 17.8 24.6ZM32.7 24.6C32.7 22.8 32.1 21.3 28.4 21.3C24.7 21.3 24 22.8 24 24.6C24 26.4 24.6 28 28.3 28C32 28 32.7 26.4 32.7 24.6Z" fill="#00D1FF"/>
<path d="M50 16C56.7 16 60.2 18.4 60.5 23.7H54.1C53.9 22.1 52.6 21.3 50 21.3C46.3 21.3 45.7 22.9 45.7 24.6C45.7 26.3 46.3 28 50 28C52.6 28 53.9 27.2 54.1 25.6H60.5C60.2 30.9 56.7 33.3 50 33.3C42.6 33.3 39.4 30.5 39.4 24.6C39.4 18.7 42.6 16 50 16Z" fill="#00D1FF"/>
<path d="M74.4 24.1L84.1 33H75.4L70 27.7L67.4 29.8V33H61.1V16.2H67.4V22.8L75.2 16.2H84.1L74.4 24.1Z" fill="#00D1FF"/>
<path d="M105.2 21.5H98V33H91.7V21.5H84.5V16.2H105.2V21.5Z" fill="#00D1FF"/>
<path d="M105.5 24.6C105.5 18.8 108.7 16 116.1 16C123.5 16 126.7 18.8 126.7 24.6C126.7 30.4 123.5 33.3 116.1 33.3C108.7 33.3 105.5 30.5 105.5 24.6ZM120.4 24.6C120.4 22.8 119.8 21.3 116.1 21.3C112.4 21.3 111.8 22.9 111.8 24.6C111.8 26.4 112.4 28 116.1 28C119.7 28 120.4 26.4 120.4 24.6Z" fill="#00D1FF"/>
<path d="M149 16.2V33H140.9L133.6 23.1V33H127.3V16.2H135.5L142.7 26.1V16.2H149Z" fill="#00D1FF"/>
<path d="M271.4 16C278.1 16 281.6 18.4 281.9 23.7H275.5C275.3 22.1 274 21.3 271.4 21.3C267.7 21.3 267.1 22.9 267.1 24.6C267.1 26.3 267.7 28 271.4 28C274 28 275.3 27.2 275.5 25.6H281.9C281.6 30.9 278.1 33.3 271.4 33.3C264 33.3 260.8 30.5 260.8 24.6C260.8 18.7 264 16 271.4 16Z" fill="#00D1FF"/>
<path d="M211.4 16.2V33H203.3L196 23.1V33H189.7V16.2H197.9L205.1 26.1V16.2H211.4Z" fill="#00D1FF"/>
<path d="M259.3 16.2V33H251.2L243.9 23.1V33H237.6V16.2H245.8L253 26.1V16.2H259.3Z" fill="#00D1FF"/>
<path d="M28.3 5C22.3 5 20.5 7.4 20.5 13.9V22.9H22.9V13.8C22.9 9.4 23.9 7.7 28.4 7.7C32.9 7.7 33.9 9.4 33.9 13.8H36.3C36.2 7.4 34.3 5 28.3 5Z" fill="#00D1FF"/>
<path d="M155.2 33.1C156.636 33.1 157.8 31.9359 157.8 30.5C157.8 29.0641 156.636 27.9 155.2 27.9C153.764 27.9 152.6 29.0641 152.6 30.5C152.6 31.9359 153.764 33.1 155.2 33.1Z" fill="#00D1FF"/>
<path d="M170.4 16.2H164.1V33H170.4V16.2Z" fill="#00D1FF"/>
<path d="M187.2 16.2H180.9V33H187.2V16.2Z" fill="#00D1FF"/>
<path d="M164.344 16.2378V21.5378H178.244V16.2378H164.344Z" fill="#00D1FF"/>
<path d="M164.389 23.7214V29.0214H175.689V23.7214H164.389Z" fill="#00D1FF"/>
<path d="M298.9 21.5V16.2H291.1H285H284.8V33H285H291.1H298.9V27.6H291.1V26.3H296.3V22.4H291.1V21.5H298.9Z" fill="#00D1FF"/>
<path d="M229 33H235.3L229.2 16.2H226H223H219.8L213.7 33H220L220.8 30.9H228.4L229 33ZM222.2 26.8L224.5 20.4L226.8 26.8H222.2Z" fill="#00D1FF"/>
</svg>
