<svg width="302" height="40" viewBox="0 0 302 40" fill="none" xmlns="http://www.w3.org/2000/svg">
<path d="M17.3 27.8V33H0V16.2H6.3V27.7H17.3V27.8Z" fill="#00D1FF"/>
<path d="M17.8 24.6C17.8 18.8 21 16 28.4 16C35.8 16 39 18.8 39 24.6C39 30.4 35.8 33.3 28.4 33.3C21 33.3 17.8 30.5 17.8 24.6ZM32.7 24.6C32.7 22.8 32.1 21.3 28.4 21.3C24.7 21.3 24 22.8 24 24.6C24 26.4 24.6 28 28.3 28C32 28 32.7 26.4 32.7 24.6Z" fill="#00D1FF"/>
<path d="M50 16C56.7 16 60.2 18.4 60.5 23.7H54.1C53.9 22.1 52.6 21.3 50 21.3C46.3 21.3 45.7 22.9 45.7 24.6C45.7 26.3 46.3 28 50 28C52.6 28 53.9 27.2 54.1 25.6H60.5C60.2 30.9 56.7 33.3 50 33.3C42.6 33.3 39.4 30.5 39.4 24.6C39.4 18.7 42.6 16 50 16Z" fill="#00D1FF"/>
<path d="M74.4 24.1L84.1 33H75.4L70 27.7L67.4 29.8V33H61.1V16.2H67.4V22.8L75.2 16.2H84.1L74.4 24.1Z" fill="#00D1FF"/>
<path d="M105.2 21.5H98V33H91.7V21.5H84.5V16.2H105.2V21.5Z" fill="#00D1FF"/>
<path d="M105.5 24.6C105.5 18.8 108.7 16 116.1 16C123.5 16 126.7 18.8 126.7 24.6C126.7 30.4 123.5 33.3 116.1 33.3C108.7 33.3 105.5 30.5 105.5 24.6ZM120.4 24.6C120.4 22.8 119.8 21.3 116.1 21.3C112.4 21.3 111.8 22.9 111.8 24.6C111.8 26.4 112.4 28 116.1 28C119.7 28 120.4 26.4 120.4 24.6Z" fill="#00D1FF"/>
<path d="M168 24.6C168 18.8 171.2 16 178.6 16C186 16 189.2 18.8 189.2 24.6C189.2 30.4 186 33.3 178.6 33.3C171.2 33.3 168 30.5 168 24.6ZM182.9 24.6C182.9 22.8 182.3 21.3 178.6 21.3C174.9 21.3 174.3 22.9 174.3 24.6C174.3 26.4 174.9 28 178.6 28C182.2 28 182.9 26.4 182.9 24.6Z" fill="#00D1FF"/>
<path d="M149 16.2V33H140.9L133.6 23.1V33H127.3V16.2H135.5L142.7 26.1V16.2H149Z" fill="#00D1FF"/>
<path d="M28.3 5C22.3 5 20.5 7.4 20.5 13.9V22.9H22.9V13.8C22.9 9.4 23.9 7.7 28.4 7.7C32.9 7.7 33.9 9.4 33.9 13.8H36.3C36.2 7.4 34.3 5 28.3 5Z" fill="#00D1FF"/>
<path d="M155.2 33.1C156.636 33.1 157.8 31.9359 157.8 30.5C157.8 29.0641 156.636 27.9 155.2 27.9C153.764 27.9 152.6 29.0641 152.6 30.5C152.6 31.9359 153.764 33.1 155.2 33.1Z" fill="#00D1FF"/>
<path d="M167.3 16H161V32.8H167.3V16Z" fill="#00D1FF"/>
</svg>
